<?xml version="1.0" encoding="utf-8"?>
<!-- Generator: Adobe Illustrator 16.0.0, SVG Export Plug-In . SVG Version: 6.00 Build 0)  -->
<!DOCTYPE svg PUBLIC "-//W3C//DTD SVG 1.1//EN" "http://www.w3.org/Graphics/SVG/1.1/DTD/svg11.dtd">
<svg version="1.1" id="Layer_1" xmlns="http://www.w3.org/2000/svg" xmlns:xlink="http://www.w3.org/1999/xlink" x="0px" y="0px"
	 width="200.75px" height="200px" viewBox="2299.25 1149.5 200.75 200" enable-background="new 2299.25 1149.5 200.75 200"
	 xml:space="preserve">
<path fill="#0059A7" d="M2300,1324.212c0,14.243,11.546,25.788,25.788,25.788h148.423c14.244,0,25.789-11.546,25.789-25.788
	v-148.423c0-14.245-11.546-25.789-25.788-25.789h-148.423c-14.244,0-25.789,11.546-25.789,25.788V1324.212L2300,1324.212z"/>
<path fill="#FFFFFF" d="M2382.936,1238.467v-28.323h24.931c2.375,0,4.664,0.198,6.869,0.594c2.204,0.396,4.155,1.102,5.852,2.12
	c1.695,1.018,3.052,2.431,4.07,4.24c1.017,1.81,1.526,4.127,1.526,6.953c0,5.088-1.526,8.763-4.58,11.024
	c-3.052,2.262-6.953,3.392-11.702,3.392H2382.936L2382.936,1238.467z M2356.309,1189.453v121.094h58.682
	c5.427,0,10.713-0.678,15.857-2.035s9.724-3.448,13.737-6.275c4.014-2.826,7.208-6.473,9.582-10.938
	c2.375-4.467,3.562-9.753,3.562-15.858c0-7.575-1.837-14.048-5.512-19.418c-3.675-5.371-9.243-9.131-16.706-11.279
	c5.428-2.6,9.526-5.936,12.297-10.006c2.77-4.07,4.155-9.158,4.155-15.264c0-5.653-0.934-10.401-2.799-14.246
	c-1.865-3.844-4.494-6.925-7.887-9.243c-3.392-2.318-7.462-3.986-12.211-5.003c-4.748-1.018-10.006-1.526-15.772-1.526H2356.309
	L2356.309,1189.453z M2382.936,1289.855v-33.241h29.001c5.767,0,10.402,1.328,13.908,3.985c3.505,2.657,5.258,7.095,5.258,13.313
	c0,3.167-0.538,5.767-1.612,7.802s-2.516,3.646-4.324,4.834s-3.901,2.035-6.275,2.544c-2.375,0.508-4.861,0.763-7.463,0.763
	H2382.936L2382.936,1289.855z"/>
</svg>
